<svg xmlns="http://www.w3.org/2000/svg" viewBox="0 0 144 40" fill="none">
  <g transform="translate(4 4)">
    <g stroke-width="2.5" stroke-linecap="round">
      <line x1="5" y1="8" x2="8" y2="5" stroke="#D89B5E"/>
      <line x1="7" y1="10" x2="10" y2="7" stroke="#2F6D3A"/>
      <line x1="9" y1="12" x2="12" y2="9" stroke="#1E5A8C"/>
      <line x1="11" y1="14" x2="14" y2="11" stroke="#B23A2A"/>
    </g>
    <g stroke="#161311" stroke-width="5" stroke-linecap="round">
      <line x1="27" y1="5" x2="16" y2="16"/>
      <line x1="27" y1="27" x2="16" y2="16"/>
      <line x1="5" y1="27" x2="16" y2="16"/>
    </g>
  </g>
  <path d="M51.348 28L45.012 28L45.012 25.448L47.036 25.448L47.036 15.152L45.012 15.152L45.012 12.600L51.348 12.600Q54.450 12.600 56.067 14.173Q57.684 15.746 57.684 18.848L57.684 21.752Q57.684 24.854 56.067 26.427Q54.450 28 51.348 28M49.940 15.240L49.940 25.360L51.392 25.360Q53.152 25.360 53.966 24.436Q54.780 23.512 54.780 21.840L54.780 18.760Q54.780 17.066 53.966 16.153Q53.152 15.240 51.392 15.240 M64.724 28.308Q63.096 28.308 61.853 27.615Q60.610 26.922 59.917 25.657Q59.224 24.392 59.224 22.676L59.224 22.412Q59.224 20.696 59.906 19.431Q60.588 18.166 61.820 17.473Q63.052 16.780 64.680 16.780Q66.286 16.780 67.474 17.495Q68.662 18.210 69.322 19.475Q69.982 20.740 69.982 22.412L69.982 23.358L62.040 23.358Q62.084 24.480 62.876 25.184Q63.668 25.888 64.812 25.888Q65.978 25.888 66.528 25.382Q67.078 24.876 67.364 24.260L69.630 25.448Q69.322 26.020 68.739 26.691Q68.156 27.362 67.188 27.835Q66.220 28.308 64.724 28.308M62.062 21.290L67.166 21.290Q67.078 20.344 66.407 19.772Q65.736 19.200 64.658 19.200Q63.536 19.200 62.876 19.772Q62.216 20.344 62.062 21.290 M76.538 28.308Q74.404 28.308 73.040 27.384Q71.676 26.460 71.390 24.744L73.942 24.084Q74.096 24.854 74.459 25.294Q74.822 25.734 75.361 25.921Q75.900 26.108 76.538 26.108Q77.506 26.108 77.968 25.767Q78.430 25.426 78.430 24.920Q78.430 24.414 77.990 24.139Q77.550 23.864 76.582 23.688L75.966 23.578Q74.822 23.358 73.876 22.973Q72.930 22.588 72.358 21.906Q71.786 21.224 71.786 20.146Q71.786 18.518 72.974 17.649Q74.162 16.780 76.098 16.780Q77.924 16.780 79.134 17.594Q80.344 18.408 80.718 19.728L78.144 20.520Q77.968 19.684 77.429 19.332Q76.890 18.980 76.098 18.980Q75.306 18.980 74.888 19.255Q74.470 19.530 74.470 20.014Q74.470 20.542 74.910 20.795Q75.350 21.048 76.098 21.180L76.714 21.290Q77.946 21.510 78.947 21.873Q79.948 22.236 80.531 22.907Q81.114 23.578 81.114 24.722Q81.114 26.438 79.871 27.373Q78.628 28.308 76.538 28.308 M85.866 28L83.094 28L83.094 17.088L85.866 17.088L85.866 28M84.480 15.812Q83.732 15.812 83.215 15.328Q82.698 14.844 82.698 14.052Q82.698 13.260 83.215 12.776Q83.732 12.292 84.480 12.292Q85.250 12.292 85.756 12.776Q86.262 13.260 86.262 14.052Q86.262 14.844 85.756 15.328Q85.250 15.812 84.480 15.812 M87.978 22.588L87.978 22.236Q87.978 20.520 88.660 19.299Q89.342 18.078 90.475 17.429Q91.608 16.780 92.950 16.780Q94.446 16.780 95.216 17.308Q95.986 17.836 96.338 18.408L96.734 18.408L96.734 17.088L99.462 17.088L99.462 29.936Q99.462 31.058 98.802 31.729Q98.142 32.400 97.042 32.400L89.738 32.400L89.738 29.980L96.074 29.980Q96.690 29.980 96.690 29.320L96.690 26.482L96.294 26.482Q96.074 26.834 95.678 27.197Q95.282 27.560 94.622 27.802Q93.962 28.044 92.950 28.044Q91.608 28.044 90.475 27.395Q89.342 26.746 88.660 25.525Q87.978 24.304 87.978 22.588M93.742 25.624Q95.018 25.624 95.876 24.810Q96.734 23.996 96.734 22.522L96.734 22.302Q96.734 20.806 95.887 20.003Q95.040 19.200 93.742 19.200Q92.466 19.200 91.608 20.003Q90.750 20.806 90.750 22.302L90.750 22.522Q90.750 23.996 91.608 24.810Q92.466 25.624 93.742 25.624 M104.874 28L102.102 28L102.102 17.088L104.830 17.088L104.830 18.518L105.226 18.518Q105.490 17.946 106.216 17.429Q106.942 16.912 108.416 16.912Q109.692 16.912 110.649 17.495Q111.606 18.078 112.134 19.101Q112.662 20.124 112.662 21.488L112.662 28L109.890 28L109.890 21.708Q109.890 20.476 109.285 19.860Q108.680 19.244 107.558 19.244Q106.282 19.244 105.578 20.091Q104.874 20.938 104.874 22.456" fill="#161311"/>
</svg>
