<svg xmlns="http://www.w3.org/2000/svg" viewBox="0 0 96 56" fill="none">
  <g transform="translate(32 4)">
    <g stroke-width="2.5" stroke-linecap="round">
      <line x1="5" y1="8" x2="8" y2="5" stroke="#E8A66B"/>
      <line x1="7" y1="10" x2="10" y2="7" stroke="#4FA85A"/>
      <line x1="9" y1="12" x2="12" y2="9" stroke="#4B8BBE"/>
      <line x1="11" y1="14" x2="14" y2="11" stroke="#D45A4A"/>
    </g>
    <g stroke="#E2E8F0" stroke-width="5" stroke-linecap="round">
      <line x1="27" y1="5" x2="16" y2="16"/>
      <line x1="27" y1="27" x2="16" y2="16"/>
      <line x1="5" y1="27" x2="16" y2="16"/>
    </g>
  </g>
  <path d="M7.421 50L6.491 50L8.104 47.352L6.514 44.750L7.444 44.750L8.629 46.775L8.749 46.775L9.941 44.750L10.871 44.750L9.281 47.352L10.894 50L9.956 50L8.749 47.930L8.629 47.930 M15.956 50L15.146 50L15.146 45.485L13.534 45.485L13.534 44.750L17.569 44.750L17.569 45.485L15.956 45.485 M21.364 50L20.554 50L20.554 44.750L22.759 44.750Q23.246 44.750 23.617 44.919Q23.989 45.087 24.195 45.403Q24.401 45.718 24.401 46.153L24.401 46.235Q24.401 46.730 24.165 47.026Q23.929 47.322 23.591 47.443L23.591 47.563Q23.876 47.578 24.049 47.754Q24.221 47.930 24.221 48.260L24.221 50L23.404 50L23.404 48.373Q23.404 48.170 23.299 48.050Q23.194 47.930 22.961 47.930L21.364 47.930L21.364 50M21.364 45.485L21.364 47.195L22.669 47.195Q23.104 47.195 23.344 46.974Q23.584 46.752 23.584 46.370L23.584 46.310Q23.584 45.928 23.347 45.706Q23.111 45.485 22.669 45.485 M30.889 50L27.544 50L27.544 44.750L30.851 44.750L30.851 45.485L28.354 45.485L28.354 46.992L30.641 46.992L30.641 47.727L28.354 47.727L28.354 49.265L30.889 49.265 M34.774 50L33.986 50L33.986 44.750L35.509 44.750L36.656 49.460L36.776 49.460L37.924 44.750L39.446 44.750L39.446 50L38.659 50L38.659 45.320L38.539 45.320L37.399 50L36.034 50L34.894 45.320L34.774 45.320 M46.136 50L42.791 50L42.791 44.750L46.099 44.750L46.099 45.485L43.601 45.485L43.601 46.992L45.889 46.992L45.889 47.727L43.601 47.727L43.601 49.265L46.136 49.265  M55.301 50L53.201 50L53.201 49.280L53.906 49.280L53.906 45.470L53.201 45.470L53.201 44.750L55.301 44.750Q56.351 44.750 56.910 45.282Q57.469 45.815 57.469 46.888L57.469 47.870Q57.469 48.943 56.910 49.471Q56.351 50 55.301 50M54.724 45.492L54.724 49.265L55.309 49.265Q55.991 49.265 56.321 48.920Q56.651 48.575 56.651 47.892L56.651 46.858Q56.651 46.167 56.321 45.830Q55.991 45.492 55.309 45.492 M63.979 50L60.634 50L60.634 44.750L63.941 44.750L63.941 45.485L61.444 45.485L61.444 46.992L63.731 46.992L63.731 47.727L61.444 47.727L61.444 49.265L63.979 49.265 M68.861 50.105Q68.269 50.105 67.811 49.895Q67.354 49.685 67.095 49.276Q66.836 48.867 66.836 48.282L66.836 48.095L67.639 48.095L67.639 48.282Q67.639 48.837 67.972 49.115Q68.306 49.392 68.861 49.392Q69.424 49.392 69.709 49.156Q69.994 48.920 69.994 48.545Q69.994 48.297 69.859 48.140Q69.724 47.983 69.476 47.889Q69.229 47.795 68.884 47.712L68.606 47.645Q68.104 47.525 67.733 47.349Q67.361 47.172 67.159 46.880Q66.956 46.587 66.956 46.130Q66.956 45.665 67.185 45.335Q67.414 45.005 67.819 44.825Q68.224 44.645 68.771 44.645Q69.319 44.645 69.750 44.833Q70.181 45.020 70.429 45.388Q70.676 45.755 70.676 46.310L70.676 46.580L69.874 46.580L69.874 46.310Q69.874 45.972 69.735 45.763Q69.596 45.553 69.349 45.455Q69.101 45.358 68.771 45.358Q68.291 45.358 68.025 45.556Q67.759 45.755 67.759 46.108Q67.759 46.347 67.875 46.501Q67.991 46.655 68.216 46.752Q68.441 46.850 68.779 46.925L69.056 46.992Q69.566 47.105 69.956 47.281Q70.346 47.458 70.571 47.758Q70.796 48.057 70.796 48.530Q70.796 49.002 70.560 49.355Q70.324 49.708 69.889 49.906Q69.454 50.105 68.861 50.105 M74.704 50L73.894 50L73.894 44.750L74.704 44.750 M79.871 50.105Q79.309 50.105 78.866 49.861Q78.424 49.617 78.169 49.145Q77.914 48.672 77.914 47.990L77.914 46.760Q77.914 45.733 78.476 45.189Q79.039 44.645 79.999 44.645Q80.944 44.645 81.454 45.159Q81.964 45.672 81.964 46.535L81.964 46.572L81.161 46.572L81.161 46.513Q81.161 46.190 81.034 45.931Q80.906 45.672 80.651 45.523Q80.396 45.373 79.999 45.373Q79.399 45.373 79.061 45.736Q78.724 46.100 78.724 46.745L78.724 48.005Q78.724 48.642 79.061 49.014Q79.399 49.385 80.006 49.385Q80.606 49.385 80.884 49.055Q81.161 48.725 81.161 48.200L81.161 48.102L79.751 48.102L79.751 47.405L81.964 47.405L81.964 50L81.214 50L81.214 49.468L81.094 49.468Q81.026 49.610 80.895 49.760Q80.764 49.910 80.520 50.008Q80.276 50.105 79.871 50.105 M86.059 50L85.256 50L85.256 44.750L86.816 44.750L88.241 49.460L88.361 49.460L88.361 44.750L89.164 44.750L89.164 50L87.604 50L86.179 45.282L86.059 45.282" fill="#E2E8F0"/>
</svg>
